<svg xmlns="http://www.w3.org/2000/svg" width="1200" height="543" viewBox="0 0 1200 543">
  <g id="Riyad_Logo_1" data-name="Riyad Logo 1" transform="translate(-433 -182)">
    <g id="Rectangle_7" data-name="Rectangle 7" transform="translate(433 182)" fill="#121212" stroke="#121212" stroke-width="1">
      <rect width="1200" height="543" rx="56" stroke="none"/>
      <rect x="0.5" y="0.5" width="1199" height="542" rx="55.5" fill="none"/>
    </g>
    <text id="RIYAD_KHAN" data-name="RIYAD KHAN" transform="translate(665 473)" fill="#f1ec40" font-size="105" font-family="SHARY-Bold, SHARY" font-weight="700"><tspan x="0" y="100">RIYAD KHAN</tspan></text>
    <g id="whole_pixel_heart" data-name="whole pixel heart" transform="translate(806.705 310)" fill="#f1ec40">
      <path d="M 67.50041198730469 101.4996948242188 L 51.49940872192383 101.4996948242188 L 51.49940872192383 84.99960327148438 L 51.49940872192383 84.49960327148438 L 50.99940872192383 84.49960327148438 L 35.50009918212891 84.49960327148438 L 35.50009918212891 69.00031280517578 L 35.50009918212891 68.50031280517578 L 35.00009918212891 68.50031280517578 L 18.50000762939453 68.50031280517578 L 18.50000762939453 52.00020599365234 L 18.50000762939453 51.50020599365234 L 18.00000762939453 51.50020599365234 L 0.5000085234642029 51.50020599365234 L 0.5000085234642029 18.5000057220459 L 18.00000762939453 18.5000057220459 L 18.50000762939453 18.5000057220459 L 18.50000762939453 18.0000057220459 L 18.50000762939453 0.5000050663948059 L 36.00000762939453 0.5000050663948059 L 50.50030136108398 0.5000050663948059 L 50.50030136108398 18.0000057220459 L 50.50030136108398 18.5000057220459 L 51.00030136108398 18.5000057220459 L 67.99950408935547 18.5000057220459 L 68.49950408935547 18.5000057220459 L 68.49950408935547 18.0000057220459 L 68.49950408935547 0.5000050663948059 L 82.99980926513672 0.5000050663948059 L 100.4998092651367 0.5000050663948059 L 100.4998092651367 68.50031280517578 L 83.99970245361328 68.50031280517578 L 83.49970245361328 68.50031280517578 L 83.49970245361328 69.00031280517578 L 83.49970245361328 84.49960327148438 L 68.00041198730469 84.49960327148438 L 67.50041198730469 84.49960327148438 L 67.50041198730469 84.99960327148438 L 67.50041198730469 101.4996948242188 Z M 118.4998092651367 51.50020599365234 L 101.4998092651367 51.50020599365234 L 101.4998092651367 18.5000057220459 L 118.4998092651367 18.5000057220459 L 118.4998092651367 51.50020599365234 Z" stroke="none"/>
      <path d="M 67.00041198730469 100.9996948242188 L 67.00041198730469 84.99960327148438 L 67.00041198730469 83.99960327148438 L 68.00041198730469 83.99960327148438 L 82.99970245361328 83.99960327148438 L 82.99970245361328 69.00031280517578 L 82.99970245361328 68.00031280517578 L 83.99970245361328 68.00031280517578 L 99.99980926513672 68.00031280517578 L 99.99980926513672 1.000005125999451 L 82.99980926513672 1.000005125999451 L 68.99950408935547 1.000005125999451 L 68.99950408935547 18.0000057220459 L 68.99950408935547 19.0000057220459 L 67.99950408935547 19.0000057220459 L 51.00030136108398 19.0000057220459 L 50.00030136108398 19.0000057220459 L 50.00030136108398 18.0000057220459 L 50.00030136108398 1.000005125999451 L 36.00000762939453 1.000005125999451 L 19.00000762939453 1.000005125999451 L 19.00000762939453 18.0000057220459 L 19.00000762939453 19.0000057220459 L 18.00000762939453 19.0000057220459 L 1.000008463859558 19.0000057220459 L 1.000008463859558 51.00020599365234 L 18.00000762939453 51.00020599365234 L 19.00000762939453 51.00020599365234 L 19.00000762939453 52.00020599365234 L 19.00000762939453 68.00031280517578 L 35.00009918212891 68.00031280517578 L 36.00009918212891 68.00031280517578 L 36.00009918212891 69.00031280517578 L 36.00009918212891 83.99960327148438 L 50.99940872192383 83.99960327148438 L 51.99940872192383 83.99960327148438 L 51.99940872192383 84.99960327148438 L 51.99940872192383 100.9996948242188 L 67.00041198730469 100.9996948242188 M 117.9998092651367 51.00020599365234 L 117.9998092651367 19.0000057220459 L 101.9998092651367 19.0000057220459 L 101.9998092651367 51.00020599365234 L 117.9998092651367 51.00020599365234 M 68.00041198730469 101.9996948242188 L 67.99950408935547 101.9996948242188 L 50.99940872192383 101.9996948242188 L 50.99940872192383 84.99960327148438 L 35.00009918212891 84.99960327148438 L 35.00009918212891 69.00031280517578 L 18.00000762939453 69.00031280517578 L 18.00000762939453 52.00020599365234 L 8.510179213772062e-06 52.00020599365234 L 8.510179213772062e-06 18.0000057220459 L 18.00000762939453 18.0000057220459 L 18.00000762939453 5.072960448160302e-06 L 36.00000762939453 5.072960448160302e-06 L 51.00030136108398 5.072960448160302e-06 L 51.00030136108398 18.0000057220459 L 67.99950408935547 18.0000057220459 L 67.99950408935547 5.072960448160302e-06 L 82.99980926513672 5.072960448160302e-06 L 100.9998092651367 5.072960448160302e-06 L 100.9998092651367 69.00031280517578 L 83.99970245361328 69.00031280517578 L 83.99970245361328 84.99960327148438 L 68.00041198730469 84.99960327148438 L 68.00041198730469 101.9996948242188 Z M 118.9998092651367 52.00020599365234 L 100.9998092651367 52.00020599365234 L 100.9998092651367 18.0000057220459 L 118.9998092651367 18.0000057220459 L 118.9998092651367 52.00020599365234 Z" stroke="none" fill="#f1ec40"/>
    </g>
    <g id="whole_pixel_heart-2" data-name="whole pixel heart" transform="translate(948.164 310)" fill="#f1ec40">
      <path d="M 67.50041198730469 101.4996948242188 L 51.49940872192383 101.4996948242188 L 51.49940872192383 84.99960327148438 L 51.49940872192383 84.49960327148438 L 50.99940872192383 84.49960327148438 L 35.50009918212891 84.49960327148438 L 35.50009918212891 69.00031280517578 L 35.50009918212891 68.50031280517578 L 35.00009918212891 68.50031280517578 L 18.50000762939453 68.50031280517578 L 18.50000762939453 52.00020599365234 L 18.50000762939453 51.50020599365234 L 18.00000762939453 51.50020599365234 L 0.5000085234642029 51.50020599365234 L 0.5000085234642029 18.5000057220459 L 18.00000762939453 18.5000057220459 L 18.50000762939453 18.5000057220459 L 18.50000762939453 18.0000057220459 L 18.50000762939453 0.5000050663948059 L 36.00000762939453 0.5000050663948059 L 50.50030136108398 0.5000050663948059 L 50.50030136108398 18.0000057220459 L 50.50030136108398 18.5000057220459 L 51.00030136108398 18.5000057220459 L 67.99950408935547 18.5000057220459 L 68.49950408935547 18.5000057220459 L 68.49950408935547 18.0000057220459 L 68.49950408935547 0.5000050663948059 L 82.99980926513672 0.5000050663948059 L 100.4998092651367 0.5000050663948059 L 100.4998092651367 68.50031280517578 L 83.99970245361328 68.50031280517578 L 83.49970245361328 68.50031280517578 L 83.49970245361328 69.00031280517578 L 83.49970245361328 84.49960327148438 L 68.00041198730469 84.49960327148438 L 67.50041198730469 84.49960327148438 L 67.50041198730469 84.99960327148438 L 67.50041198730469 101.4996948242188 Z M 118.4998092651367 51.50020599365234 L 101.4998092651367 51.50020599365234 L 101.4998092651367 18.5000057220459 L 118.4998092651367 18.5000057220459 L 118.4998092651367 51.50020599365234 Z" stroke="none"/>
      <path d="M 67.00041198730469 100.9996948242188 L 67.00041198730469 84.99960327148438 L 67.00041198730469 83.99960327148438 L 68.00041198730469 83.99960327148438 L 82.99970245361328 83.99960327148438 L 82.99970245361328 69.00031280517578 L 82.99970245361328 68.00031280517578 L 83.99970245361328 68.00031280517578 L 99.99980926513672 68.00031280517578 L 99.99980926513672 1.000005125999451 L 82.99980926513672 1.000005125999451 L 68.99950408935547 1.000005125999451 L 68.99950408935547 18.0000057220459 L 68.99950408935547 19.0000057220459 L 67.99950408935547 19.0000057220459 L 51.00030136108398 19.0000057220459 L 50.00030136108398 19.0000057220459 L 50.00030136108398 18.0000057220459 L 50.00030136108398 1.000005125999451 L 36.00000762939453 1.000005125999451 L 19.00000762939453 1.000005125999451 L 19.00000762939453 18.0000057220459 L 19.00000762939453 19.0000057220459 L 18.00000762939453 19.0000057220459 L 1.000008463859558 19.0000057220459 L 1.000008463859558 51.00020599365234 L 18.00000762939453 51.00020599365234 L 19.00000762939453 51.00020599365234 L 19.00000762939453 52.00020599365234 L 19.00000762939453 68.00031280517578 L 35.00009918212891 68.00031280517578 L 36.00009918212891 68.00031280517578 L 36.00009918212891 69.00031280517578 L 36.00009918212891 83.99960327148438 L 50.99940872192383 83.99960327148438 L 51.99940872192383 83.99960327148438 L 51.99940872192383 84.99960327148438 L 51.99940872192383 100.9996948242188 L 67.00041198730469 100.9996948242188 M 117.9998092651367 51.00020599365234 L 117.9998092651367 19.0000057220459 L 101.9998092651367 19.0000057220459 L 101.9998092651367 51.00020599365234 L 117.9998092651367 51.00020599365234 M 68.00041198730469 101.9996948242188 L 67.99950408935547 101.9996948242188 L 50.99940872192383 101.9996948242188 L 50.99940872192383 84.99960327148438 L 35.00009918212891 84.99960327148438 L 35.00009918212891 69.00031280517578 L 18.00000762939453 69.00031280517578 L 18.00000762939453 52.00020599365234 L 8.510179213772062e-06 52.00020599365234 L 8.510179213772062e-06 18.0000057220459 L 18.00000762939453 18.0000057220459 L 18.00000762939453 5.072960448160302e-06 L 36.00000762939453 5.072960448160302e-06 L 51.00030136108398 5.072960448160302e-06 L 51.00030136108398 18.0000057220459 L 67.99950408935547 18.0000057220459 L 67.99950408935547 5.072960448160302e-06 L 82.99980926513672 5.072960448160302e-06 L 100.9998092651367 5.072960448160302e-06 L 100.9998092651367 69.00031280517578 L 83.99970245361328 69.00031280517578 L 83.99970245361328 84.99960327148438 L 68.00041198730469 84.99960327148438 L 68.00041198730469 101.9996948242188 Z M 118.9998092651367 52.00020599365234 L 100.9998092651367 52.00020599365234 L 100.9998092651367 18.0000057220459 L 118.9998092651367 18.0000057220459 L 118.9998092651367 52.00020599365234 Z" stroke="none" fill="#f1ec40"/>
    </g>
    <g id="whole_pixel_heart-3" data-name="whole pixel heart" transform="translate(1089.623 310)" fill="#555">
      <path d="M 67.50041198730469 101.4996948242188 L 51.49940872192383 101.4996948242188 L 51.49940872192383 84.99960327148438 L 51.49940872192383 84.49960327148438 L 50.99940872192383 84.49960327148438 L 35.50009918212891 84.49960327148438 L 35.50009918212891 69.00031280517578 L 35.50009918212891 68.50031280517578 L 35.00009918212891 68.50031280517578 L 18.50000762939453 68.50031280517578 L 18.50000762939453 52.00020599365234 L 18.50000762939453 51.50020599365234 L 18.00000762939453 51.50020599365234 L 0.5000085234642029 51.50020599365234 L 0.5000085234642029 18.5000057220459 L 18.00000762939453 18.5000057220459 L 18.50000762939453 18.5000057220459 L 18.50000762939453 18.0000057220459 L 18.50000762939453 0.5000050663948059 L 36.00000762939453 0.5000050663948059 L 50.50030136108398 0.5000050663948059 L 50.50030136108398 18.0000057220459 L 50.50030136108398 18.5000057220459 L 51.00030136108398 18.5000057220459 L 67.99950408935547 18.5000057220459 L 68.49950408935547 18.5000057220459 L 68.49950408935547 18.0000057220459 L 68.49950408935547 0.5000050663948059 L 82.99980926513672 0.5000050663948059 L 100.4998092651367 0.5000050663948059 L 100.4998092651367 68.50031280517578 L 83.99970245361328 68.50031280517578 L 83.49970245361328 68.50031280517578 L 83.49970245361328 69.00031280517578 L 83.49970245361328 84.49960327148438 L 68.00041198730469 84.49960327148438 L 67.50041198730469 84.49960327148438 L 67.50041198730469 84.99960327148438 L 67.50041198730469 101.4996948242188 Z M 118.4998092651367 51.50020599365234 L 101.4998092651367 51.50020599365234 L 101.4998092651367 18.5000057220459 L 118.4998092651367 18.5000057220459 L 118.4998092651367 51.50020599365234 Z" stroke="none"/>
      <path d="M 67.00041198730469 100.9996948242188 L 67.00041198730469 84.99960327148438 L 67.00041198730469 83.99960327148438 L 68.00041198730469 83.99960327148438 L 82.99970245361328 83.99960327148438 L 82.99970245361328 69.00031280517578 L 82.99970245361328 68.00031280517578 L 83.99970245361328 68.00031280517578 L 99.99980926513672 68.00031280517578 L 99.99980926513672 1.000005125999451 L 82.99980926513672 1.000005125999451 L 68.99950408935547 1.000005125999451 L 68.99950408935547 18.0000057220459 L 68.99950408935547 19.0000057220459 L 67.99950408935547 19.0000057220459 L 51.00030136108398 19.0000057220459 L 50.00030136108398 19.0000057220459 L 50.00030136108398 18.0000057220459 L 50.00030136108398 1.000005125999451 L 36.00000762939453 1.000005125999451 L 19.00000762939453 1.000005125999451 L 19.00000762939453 18.0000057220459 L 19.00000762939453 19.0000057220459 L 18.00000762939453 19.0000057220459 L 1.000008463859558 19.0000057220459 L 1.000008463859558 51.00020599365234 L 18.00000762939453 51.00020599365234 L 19.00000762939453 51.00020599365234 L 19.00000762939453 52.00020599365234 L 19.00000762939453 68.00031280517578 L 35.00009918212891 68.00031280517578 L 36.00009918212891 68.00031280517578 L 36.00009918212891 69.00031280517578 L 36.00009918212891 83.99960327148438 L 50.99940872192383 83.99960327148438 L 51.99940872192383 83.99960327148438 L 51.99940872192383 84.99960327148438 L 51.99940872192383 100.9996948242188 L 67.00041198730469 100.9996948242188 M 117.9998092651367 51.00020599365234 L 117.9998092651367 19.0000057220459 L 101.9998092651367 19.0000057220459 L 101.9998092651367 51.00020599365234 L 117.9998092651367 51.00020599365234 M 68.00041198730469 101.9996948242188 L 67.99950408935547 101.9996948242188 L 50.99940872192383 101.9996948242188 L 50.99940872192383 84.99960327148438 L 35.00009918212891 84.99960327148438 L 35.00009918212891 69.00031280517578 L 18.00000762939453 69.00031280517578 L 18.00000762939453 52.00020599365234 L 8.510179213772062e-06 52.00020599365234 L 8.510179213772062e-06 18.0000057220459 L 18.00000762939453 18.0000057220459 L 18.00000762939453 5.072960448160302e-06 L 36.00000762939453 5.072960448160302e-06 L 51.00030136108398 5.072960448160302e-06 L 51.00030136108398 18.0000057220459 L 67.99950408935547 18.0000057220459 L 67.99950408935547 5.072960448160302e-06 L 82.99980926513672 5.072960448160302e-06 L 100.9998092651367 5.072960448160302e-06 L 100.9998092651367 69.00031280517578 L 83.99970245361328 69.00031280517578 L 83.99970245361328 84.99960327148438 L 68.00041198730469 84.99960327148438 L 68.00041198730469 101.9996948242188 Z M 118.9998092651367 52.00020599365234 L 100.9998092651367 52.00020599365234 L 100.9998092651367 18.0000057220459 L 118.9998092651367 18.0000057220459 L 118.9998092651367 52.00020599365234 Z" stroke="none" fill="#555"/>
    </g>
  </g>
</svg>
